<svg width="30" height="30" viewBox="0 0 30 30" fill="none" xmlns="http://www.w3.org/2000/svg">
<path d="M18.6 1.93335H20.6C22.0667 1.93335 23.2667 3.13335 23.2667 4.60002V13.1334L18.6 1.93335ZM25.8 4.06668L27.5334 4.86668C28.8667 5.40002 29.5334 7.00002 29 8.33335L25.8 16.2V4.06668ZM23 19.6667L16.3334 3.66668C15.9334 2.60002 15 2.06668 13.9334 2.06668C13.5334 2.06668 13.2667 2.20002 12.8667 2.33335L3.00002 6.33335C1.66669 6.86668 1.00002 8.33335 1.66669 9.66668L8.33335 25.6667C8.73335 26.7333 9.66669 27.2667 10.7334 27.2667C11.1334 27.2667 11.4 27.2667 11.8 27L21.6667 23C22.7334 22.6 23.2667 21.6667 23.2667 20.6C23.1334 20.3334 23.1334 19.9333 23 19.6667ZM14.2 19L9.93335 15.8L10.4667 10.4667L14.7334 13.6667L14.2 19Z" fill="url(#paint0_linear_51_2)"/>
<defs>
<linearGradient id="paint0_linear_51_2" x1="15.2946" y1="1.93335" x2="15.2946" y2="27.2667" gradientUnits="userSpaceOnUse">
<stop stop-color="#FF0000"/>
<stop offset="1" stop-color="#8F00FF"/>
</linearGradient>
</defs>
</svg>
